{"title":"Would.You.Rather.2012.BDRiP.AC3-5.1.XviD-AXED","uid":8641541,"size":1469667953,"categoryP":"video","categoryS":"movies","magnet":"?xt=urn:btih:0cfeeb4a352c29b2116c30fdf2f1bef8fcc41c1f&amp;dn=Would.You.Rather.2012.BDRiP.AC3-5.1.XviD-AXED&amp;tr=udp%3A%2F%2Ftracker.openbittorrent.com%3A80&amp;tr=udp%3A%2F%2Fopen.demonii.com%3A1337&amp;tr=udp%3A%2F%2Ftracker.coppersurfer.tk%3A6969&amp;tr=udp%3A%2F%2Fexodus.desync.com%3A6969","seeders":29,"leechers":2,"uploader":"Acesn8s","files":-1,"time":1372891536,"description":"Would.You.Rather.2012.BDRiP.AC3-5.1.XviD-AXED\n\nFormat                                   : AVI\nFormat/Info                              : Audio Video Interleave\nFile size                                : 1.37 GiB\nDuration                                 : 1h 33mn\nOverall bit rate                         : 2 098 Kbps\n\nVideo\nID                                       : 0\nFormat                                   : MPEG-4 Visual\nFormat profile                           : Advanced Simple@L5\nFormat settings, BVOP                    : 2\nFormat settings, QPel                    : No\nFormat settings, GMC                     : No warppoints\nFormat settings, Matrix                  : Default (H.263)\nMuxing mode                              : Packed bitstream\nCodec ID                                 : XVID\nCodec ID/Hint                            : XviD\nDuration                                 : 1h 33mn\nBit rate                                 : 1 643 Kbps\nWidth                                    : 720 pixels\nHeight                                   : 304 pixels\nDisplay aspect ratio                     : 2.35:1\nFrame rate                               : 23.976 fps\nColor space                              : YUV\nChroma subsampling                       : 4:2:0\nBit depth                                : 8 bits\nScan type                                : Progressive\nCompression mode                         : Lossy\nBits/(Pixel*Frame)                       : 0.313\nStream size                              : 1.07 GiB (78%)\nWriting library                          : XviD 64\n\nAudio\nID                                       : 1\nFormat                                   : AC-3\nFormat/Info                              : Audio Coding 3\nMode extension                           : CM (complete main)\nFormat settings, Endianness              : Big\nCodec ID                                 : 2000\nDuration                                 : 1h 33mn\nBit rate mode                            : Constant\nBit rate                                 : 448 Kbps\nChannel(s)                               : 6 channels\nChannel positions                        : Front: L C R, Side: L R, LFE\nSampling rate                            : 48.0 KHz\nBit depth                                : 16 bits\nCompression mode                         : Lossy\nStream size                              : 299 MiB (21%)\nAlignment                                : Aligned on interleaves\nInterleave, duration                     : 64 ms (1.53 video frames)\nInterleave, preload duration             : 192 ms\n\n\nSOURCE:\nRetail RA Blu-Ray DISC\n\nNOTES:\nEnjoy a nice xvid encode from the Retail RA Blu-Ray.\n\nAXED! We do this better.\n\nSCREENS:\n &lt;a href=&quot;\nhttp://imageshack.us/a/img7/6333/0qv8.png&quot; rel=&quot;nofollow&quot; target=&quot;_NEW&quot;&gt;\nhttp://imageshack.us/a/img7/6333/0qv8.png&lt;/a&gt;\n &lt;a href=&quot;\nhttp://imageshack.us/a/img89/1032/x4eh.png&quot; rel=&quot;nofollow&quot; target=&quot;_NEW&quot;&gt;\nhttp://imageshack.us/a/img89/1032/x4eh.png&lt;/a&gt;\n &lt;a href=&quot;\nhttp://imageshack.us/a/img600/2469/0c.png&quot; rel=&quot;nofollow&quot; target=&quot;_NEW&quot;&gt;\nhttp://imageshack.us/a/img600/2469/0c.png&lt;/a&gt;\n &lt;a href=&quot;\nhttp://imageshack.us/a/img341/5485/cu0.png&quot; rel=&quot;nofollow&quot; target=&quot;_NEW&quot;&gt;\nhttp://imageshack.us/a/img341/5485/cu0.png&lt;/a&gt;","torrent":{"xt":"urn:btih:0cfeeb4a352c29b2116c30fdf2f1bef8fcc41c1f","amp;dn":"Would.You.Rather.2012.BDRiP.AC3-5.1.XviD-AXED","amp;tr":["udp%3A%2F%2Ftracker.openbittorrent.com%3A80","udp%3A%2F%2Fopen.demonii.com%3A1337","udp%3A%2F%2Ftracker.coppersurfer.tk%3A6969","udp%3A%2F%2Fexodus.desync.com%3A6969"],"infoHash":"0cfeeb4a352c29b2116c30fdf2f1bef8fcc41c1f","infoHashBuffer":{"type":"Buffer","data":[12,254,235,74,53,44,41,178,17,108,48,253,242,241,190,248,252,196,28,31]},"announce":[],"urlList":[]}}